PathFileType	4	(X/Y/Z)	C:\Users\chris\Documents\GitHub\baseballds\vids\pitch6_Sports2D\pitch6_Sports2D_px_person00.trc
DataRate	CameraRate	NumFrames	NumMarkers	Units	OrigDataRate	OrigDataStartFrame	OrigNumFrames
30	30	13	22	m	30	162	186
Frame#	Time	Hip			RHip			RKnee			RAnkle			RBigToe			RSmallToe			RHeel			LHip			LKnee			LAnkle			LBigToe			LSmallToe			LHeel			Neck			Head			Nose			RShoulder			RElbow			RWrist			LShoulder			LElbow			LWrist		
		X1	Y1	Z1	X2	Y2	Z2	X3	Y3	Z3	X4	Y4	Z4	X5	Y5	Z5	X6	Y6	Z6	X7	Y7	Z7	X8	Y8	Z8	X9	Y9	Z9	X10	Y10	Z10	X11	Y11	Z11	X12	Y12	Z12	X13	Y13	Z13	X14	Y14	Z14	X15	Y15	Z15	X16	Y16	Z16	X17	Y17	Z17	X18	Y18	Z18	X19	Y19	Z19	X20	Y20	Z20	X21	Y21	Z21	X22	Y22	Z22
162	5.4	567.7821711848742	503.9978550997065	0.0	552.1139336903555	505.9815821360418	0.0	545.0861311628091	579.8342456002423	0.0	541.1538592466882	653.4686686288704	0.0	543.4594568734399	677.4553355628605	0.0	532.6546666223545	675.6243005255172	0.0	539.345500833993	665.2555494606661	0.0	583.0526034939124	503.65568942324586	0.0	578.3353058581475	576.2397389561949	0.0	577.180796746693	642.9349848089973	0.0	606.5436647649093	657.1837466150646	0.0	603.6337915445774	652.9727470503605	0.0	569.8962097461078	656.0854303939553	0.0	564.7770578497602	387.0819957809639	0.0	574.9458524377724	333.5643895591868	0.0	588.0797387429693	364.5558396669563	0.0	532.5099196918591	404.18774531876613	0.0	507.07492809310423	451.15370879427917	0.0	525.2277702485566	495.17298575207366	0.0	589.8569803147277	406.91853176574796	0.0	590.2193197856118	447.06392809053784	0.0	592.5355320598785	479.8581193085548	0.0
163	5.433333333333334	564.397117315666	503.1657850368612	0.0	548.7081491532529	505.22160556585766	0.0	541.7398623858005	579.3919285680726	0.0	537.9328168983662	652.7195215250255	0.0	540.6018886338645	676.9193092672422	0.0	529.8348788222479	675.4057676076072	0.0	536.0841268531303	664.6508169556852	0.0	579.8468162670723	503.13808462861545	0.0	575.1664392459273	575.8672335505504	0.0	574.2273881264281	642.647262201226	0.0	604.108241534511	657.1161552114843	0.0	601.3005394981169	652.6493408922834	0.0	566.6930380496834	655.5091400478346	0.0	561.6830416575166	386.086917900098	0.0	571.381235524019	332.8082214791971	0.0	584.6708360468533	363.3427158913615	0.0	529.3739591568411	403.10895485563776	0.0	503.7437930428925	450.40132544319886	0.0	521.8353827621875	494.3798411664632	0.0	586.6451001909278	406.4526162933453	0.0	586.5240069501286	446.756536045957	0.0	588.8904577581337	479.44613512853897	0.0
164	5.466666666666667	561.2192345109531	502.32777870114126	0.0	545.4261880347925	504.3240014274376	0.0	538.7134436313083	578.9321262140699	0.0	534.7368250961144	651.948373662064	0.0	538.0422319901485	676.3204682282817	0.0	527.382029216567	674.9269411406212	0.0	532.682039065238	664.0536478638509	0.0	576.8998574815832	502.6144546940304	0.0	572.3039802587616	575.3627416620494	0.0	571.6876960387159	642.0793789528494	0.0	601.6502668526977	656.7793086694935	0.0	598.9447556051994	651.8407522379538	0.0	563.7619331192294	654.8811443192103	0.0	558.8235684446648	385.213581538571	0.0	568.0970911385332	332.0616728730487	0.0	581.5358779492567	362.27124863964	0.0	526.4171368558068	402.2062185934936	0.0	500.64575562223985	450.0359698677014	0.0	518.7297753788205	493.8633903443302	0.0	583.4837718570523	406.04107031975565	0.0	583.2179190020136	446.58410098458836	0.0	585.4615197746789	479.0595874151786	0.0
165	5.5	558.3751074094289	501.6758038462149	0.0	542.3469621412984	503.5736416151001	0.0	536.1286785183875	578.1017550693236	0.0	531.9127247474337	651.3255264999436	0.0	535.1846651060179	676.2918447522516	0.0	524.4006441906776	674.4227066352594	0.0	529.8259088017377	663.5840416927489	0.0	574.0705319077937	501.8555769467151	0.0	569.4852233632162	574.6734685828352	0.0	569.154767180283	641.1129681735032	0.0	599.1857332605194	655.7926716987192	0.0	596.1481668845472	650.6109281741792	0.0	560.9562662768053	654.2961858706922	0.0	555.7350986751799	385.0152736846286	0.0	565.4133782309066	331.33221312446574	0.0	578.7192240655155	361.7594899997325	0.0	523.0807268182645	401.91974339319165	0.0	497.66992481466986	449.8161714199658	0.0	516.0012836668241	493.43764517925126	0.0	580.2857977742781	405.35936169571676	0.0	580.5460724855192	445.89850174137916	0.0	582.9143026980277	478.2181751475108	0.0
166	5.533333333333333	555.8181411274945	501.30621204743693	0.0	539.6343354010215	503.1186875801843	0.0	533.6595139186824	577.27238356197	0.0	529.4198837391024	651.107045648838	0.0	532.0951743921078	676.3379951128892	0.0	521.2327394740714	674.0956891694153	0.0	527.6009021409529	663.2973500844121	0.0	571.3258088808309	501.1832967939116	0.0	566.7198932560455	574.0354520132205	0.0	566.4225152460907	640.3696918403249	0.0	596.8513678983304	654.8519683486307	0.0	593.4368333183622	649.7968315089196	0.0	558.3568109967241	653.9416513259795	0.0	552.6597149996588	384.9092837211921	0.0	563.011249595109	330.7601257172129	0.0	576.0701265224601	361.5853486265513	0.0	519.9555937516693	401.78014121130917	0.0	494.86847992092726	449.33769699421765	0.0	513.4325024205135	492.8088581727752	0.0	577.2182696440474	404.58734286681073	0.0	577.8543167273056	444.96867880601144	0.0	580.7585562708872	477.29181942155617	0.0
167	5.566666666666666	553.312134792172	501.0040247394993	0.0	537.2396919171447	502.93522600623896	0.0	531.0264055910593	576.9217351859967	0.0	527.0379718152149	651.0878854830651	0.0	529.4213284134383	675.5796468208972	0.0	518.8376032811028	673.6957041973776	0.0	525.355794055418	663.0190952934441	0.0	568.6922873391585	500.85223098749367	0.0	564.1930578147362	573.6223127666724	0.0	563.8334747097819	640.1250675823966	0.0	594.9569774130775	654.5485385878259	0.0	591.5069757168986	649.7291745971127	0.0	556.132967539779	653.7731923507138	0.0	550.0275844140735	384.21055199006537	0.0	560.3851099453491	330.33748141129104	0.0	573.5210697825656	361.330188220128	0.0	517.5156177287755	401.2962982786555	0.0	492.3239070152963	448.86412738108385	0.0	511.0925160196141	492.2916493415411	0.0	574.3879666953972	403.9497103738994	0.0	574.7784356805288	444.41797975229514	0.0	578.206550779017	476.63920006051086	0.0
168	5.6	550.7586706685898	500.53218027222835	0.0	534.8283076384539	502.753437170426	0.0	528.4046295852137	576.7521932529124	0.0	524.7501852933443	650.7781318744746	0.0	527.1997680676561	674.5733282340098	0.0	516.9560941240146	673.1541289523074	0.0	522.7630147642179	662.6713345787895	0.0	566.2465885353648	500.5054633645238	0.0	561.8549925168104	573.2167844548912	0.0	561.5867055506764	639.8811725883619	0.0	593.2941447198896	654.46000614043	0.0	589.8864421805296	649.7455423499173	0.0	554.0310348038297	653.4529106077932	0.0	547.686495086113	383.36545615331374	0.0	557.7040254183532	330.0221802708915	0.0	571.1105743420161	361.07952750583524	0.0	515.1193994789411	400.8332935501431	0.0	489.9358485912703	448.867970593402	0.0	509.05147658711076	492.22831832007125	0.0	571.7364191091015	403.33175104600036	0.0	572.1026268662865	444.1083861556761	0.0	575.5676833449404	476.03788610797056	0.0
169	5.633333333333333	548.2859133994118	499.9958234499278	0.0	532.2571022965654	502.26495102950497	0.0	526.0415464992733	576.2861675798653	0.0	522.519386748239	650.2659377722787	0.0	524.7741698302654	674.4000422886088	0.0	514.5419543128529	672.8785247743829	0.0	520.2226172401591	662.3987578850767	0.0	563.9764828856962	499.77060494735167	0.0	559.4879912300248	572.6734879949474	0.0	559.3169467527651	639.3163642136321	0.0	590.6713971612542	653.8765525340306	0.0	587.3048619126113	649.1711407478722	0.0	551.6829477804021	652.7959700977315	0.0	545.3205788768992	382.97186551981383	0.0	555.3606559203472	329.74052594224645	0.0	568.723498066246	360.83641718820434	0.0	512.3328756602666	400.6597307507464	0.0	487.5152041122389	448.985941812277	0.0	506.8773945053473	492.2021472893608	0.0	569.2510939838693	402.605423712163	0.0	570.367124453826	443.52249248084524	0.0	573.4372967144554	475.3780982743551	0.0
170	5.666666666666667	545.9803791924883	499.59573891962816	0.0	529.8138603646496	501.72323314688146	0.0	523.8114432135987	575.7740206470814	0.0	520.184134151215	650.0683368345628	0.0	521.9885043378135	674.5796407115612	0.0	511.5664480763427	672.8352100040543	0.0	518.0754366041289	662.3233670358687	0.0	561.7723076465694	499.02373895245006	0.0	557.0828119899306	572.2463286605753	0.0	556.8708108084807	638.8998093045387	0.0	586.7882911904787	653.0221835386196	0.0	583.8040593037068	648.3612444341456	0.0	549.2988255502659	652.1229424901022	0.0	542.9195182714542	382.73232117247164	0.0	553.1193666440972	329.2773225476479	0.0	566.1935222257398	360.2187036482082	0.0	509.7139848272665	400.28754459189054	0.0	484.99288376604704	448.5330708855656	0.0	504.273200743062	491.76472026683354	0.0	566.9629696700234	402.0427099388883	0.0	568.673823982818	442.8236734523923	0.0	571.3406011202329	474.9683923091929	0.0
171	5.7	543.7584423874732	499.2108488338232	0.0	527.7105395687466	501.48877320802563	0.0	521.5006565308383	575.5689856505462	0.0	517.7494897599448	650.0259166838124	0.0	519.4474960635235	673.988606108513	0.0	508.92182169806176	672.3696654073573	0.0	516.0385322756392	662.2192207632795	0.0	559.5391091442114	498.7512787047089	0.0	554.7563252072632	571.9397016828684	0.0	554.5976000000563	638.8852397475779	0.0	583.3812960133499	652.6148124494687	0.0	580.9345821769085	648.025574700816	0.0	547.2570698902618	651.758158417204	0.0	540.4638568437581	382.1939839506363	0.0	550.5928384974346	328.54575436197615	0.0	563.5882773779483	359.32610019229764	0.0	507.55021863525616	399.5227744623178	0.0	482.48436659731556	447.6925041402668	0.0	501.5712326121474	491.1751688692484	0.0	564.8439735629092	401.8210210299699	0.0	566.1789903803813	442.45151539864787	0.0	568.6249938143661	474.95924994892056	0.0
172	5.733333333333333	541.4572187767891	498.63478966101457	0.0	525.6641802029948	501.1981965760583	0.0	519.1443251368413	575.361295249729	0.0	515.4421149947392	649.522919362553	0.0	517.2638479919183	673.1231433093076	0.0	506.74462146721055	671.5072511437064	0.0	513.8685207030749	661.7020360821897	0.0	557.2016949811815	498.63546495991284	0.0	552.5129431661107	571.4714151723581	0.0	552.5775608226658	638.644672950104	0.0	581.5605684095945	652.5156168910952	0.0	579.1879132756998	647.9244332149862	0.0	545.3612169890233	651.498867497029	0.0	537.813914281297	381.49409455541456	0.0	547.9932111144742	327.76576397504823	0.0	561.1177867229567	358.5884008954615	0.0	505.2858910189685	398.9346591294236	0.0	480.11254773778944	447.1252136977211	0.0	499.10457087014606	490.75438250356166	0.0	562.7635317991337	401.5147556805877	0.0	563.5063668118223	442.13896290034097	0.0	565.7999414011834	474.9987282276846	0.0
173	5.766666666666667	539.0281953722799	497.95774014015643	0.0	523.3437881472	500.4635932773407	0.0	516.8820578679115	574.8301166337133	0.0	513.4006644832434	648.6777381835344	0.0	514.8564840935545	673.1066810614968	0.0	504.3427322497823	671.0238455053417	0.0	511.78203805189764	660.8102994821861	0.0	554.78455398802	498.1134831119892	0.0	550.3234655623422	570.9673824678907	0.0	550.4914507323738	637.7799409181089	0.0	579.938944234437	651.9423464783572	0.0	577.2722758658707	647.3524346987814	0.0	543.221702944354	650.9494835980053	0.0	535.1074069127695	380.85180066910823	0.0	545.6348950108353	327.14227127724797	0.0	558.8352573577881	357.9088505454513	0.0	502.6549639982777	398.77175894515983	0.0	477.7911091307726	446.83220404789336	0.0	496.7642747661277	490.33660509204867	0.0	560.4949990624464	400.7505224806805	0.0	561.4254489102833	441.4305537489045	0.0	563.5718637537109	474.66168568700704	0.0
174	5.8	536.6376066196652	497.4594335087624	0.0	520.8313095770704	499.6590933053344	0.0	514.717791104151	574.3028854926572	0.0	511.435475331524	648.1691872122043	0.0	512.2091635376283	673.3979123352681	0.0	501.6722041809451	670.984949648771	0.0	509.76011066594214	660.0420966603972	0.0	552.4404797628496	497.3304211441358	0.0	548.168926674923	570.7774336511354	0.0	548.2314882584848	636.8978481827128	0.0	577.1245497000144	650.9728311851258	0.0	574.5699808675431	646.4592826757703	0.0	540.9696838908638	650.1496394354042	0.0	532.6983099513437	380.1253007108939	0.0	543.2682974225438	326.5885451717575	0.0	556.5286747617022	357.084931624994	0.0	500.1158097639716	398.5373204666144	0.0	475.3788390458082	446.4059032036611	0.0	494.36236839295464	489.79075388707247	0.0	557.9471038452332	399.8609947711581	0.0	559.4266281120772	440.6235831402179	0.0	561.5929219201417	474.0322185233551	0.0
